<?xml version="1.0" encoding="UTF-8" standalone="no"?>
<svg
   viewBox="0 0 24 24"
   version="1.1"
   id="svg1"
   sodipodi:docname="cart_empty.svg"
   inkscape:version="1.3 (0e150ed6c4, 2023-07-21)"
   xmlns:inkscape="http://www.inkscape.org/namespaces/inkscape"
   xmlns:sodipodi="http://sodipodi.sourceforge.net/DTD/sodipodi-0.dtd"
   xmlns="http://www.w3.org/2000/svg"
   xmlns:svg="http://www.w3.org/2000/svg">
  <defs
     id="defs1" />
  <sodipodi:namedview
     id="namedview1"
     pagecolor="#505050"
     bordercolor="#eeeeee"
     borderopacity="1"
     inkscape:showpageshadow="0"
     inkscape:pageopacity="0"
     inkscape:pagecheckerboard="0"
     inkscape:deskcolor="#505050"
     inkscape:zoom="11.889784"
     inkscape:cx="14.424148"
     inkscape:cy="9.4619044"
     inkscape:window-width="1366"
     inkscape:window-height="705"
     inkscape:window-x="-8"
     inkscape:window-y="-8"
     inkscape:window-maximized="1"
     inkscape:current-layer="layer2" />
  <g
     inkscape:groupmode="layer"
     id="layer1"
     inkscape:label="layer">
    <path
       d="m 15.869015,2.9323047 a 1.2948616,1.4150703 0 0 1 -0.342533,-1.96589018 1.2948616,1.4150703 0 0 1 1.79889,-0.3743321 C 17.919617,1.0337398 18.068403,1.9144114 17.667905,2.5579725 17.263766,3.2073837 16.46326,3.3739617 15.869015,2.9323047 M 18.609279,18.659425 16.858665,17.358327 17.083609,15.8142 9.1656986,9.9294137 A 0.64743082,0.70753517 0 0 1 8.9944322,8.9464677 c 0.061895,-0.09946 0.150558,-0.179024 0.2462872,-0.24478 L 13.51295,6.3408227 c 0.404116,-0.221602 0.910368,-0.204718 1.311885,0.0937 l 3.988399,2.964277 1.075286,-0.59554 0.05975,-0.05827 a 0.16185771,0.17688379 0 0 0 -0.04281,-0.245737 l -6.199421,-4.607558 0.728178,-1.1701106 6.424269,4.7746746 c 0.594245,0.441656 0.743031,1.322328 0.342533,1.96589 -0.127432,0.204769 -0.295763,0.362027 -0.478012,0.466159 l -1.620102,0.8922563 -0.836156,5.872974 1.070711,0.795779 -0.728178,1.170111 m 2.61329,-11.7482283 a 1.2948616,1.4150703 0 0 1 -0.342533,-1.96589 1.2948616,1.4150703 0 0 1 1.79889,-0.374332 c 0.594245,0.441657 0.743031,1.322329 0.342533,1.96589 -0.404139,0.649411 -1.204645,0.815989 -1.79889,0.374332 m -7.366826,0.514383 -3.308735,1.819145 6.766896,5.0293233 0.557007,-3.864296 z"
       id="path1"
       style="stroke-width:0.676816" />
  </g>
  <g
     inkscape:groupmode="layer"
     id="layer2"
     inkscape:label="things"
     transform="translate(-0.16821163,7.6536294)">
    <rect
       style="fill:#000000;stroke-width:0.746419"
       id="rect23"
       width="5.5896659"
       height="2.8238032"
       x="-2.1291037"
       y="-15.862757"
       ry="0"
       transform="matrix(0.97084304,-0.23971606,-0.24919112,-0.96845433,0,0)" />
    <rect
       style="fill:#000000"
       id="rect24"
       width="4.2893968"
       height="3.0278094"
       x="8.1821814"
       y="-0.48296505"
       transform="rotate(39.791514)" />
    <rect
       style="fill:#000000"
       id="rect25"
       width="3.4483385"
       height="2.8595977"
       x="2.0185397"
       y="9.2516394" />
    <rect
       style="fill:#000000;stroke-width:1.08604"
       id="rect26"
       width="4.3735027"
       height="3.8688676"
       x="13.517893"
       y="-3.6720645"
       transform="rotate(55.414757)" />
    <rect
       style="fill:#000000"
       id="rect27"
       width="4.3735027"
       height="4.9622431"
       x="-1.9271288"
       y="12.309722"
       ry="1.0092698"
       transform="rotate(-58.784854)" />
  </g>
</svg>
